<mxfile modified="2022-05-20T02:00:37.642Z" host="app.diagrams.net" agent="5.0 (Windows NT 10.0; Win64; x64) AppleWebKit/537.36 (KHTML, like Gecko) Chrome/101.0.4951.54 Safari/537.36" etag="xsBhhOTbdvG_6IROh7KJ" compressed="false" version="18.0.8" type="google" pages="2">
  <diagram name="Integration/System Logical Module/API/Resource URLs/SCIM" id="5i9j6kY8DWkCYeISKFBW">
    <mxGraphModel grid="1" page="1" gridSize="10" guides="1" tooltips="1" connect="1" arrows="1" fold="1" pageScale="1" pageWidth="850" pageHeight="1100" math="0" shadow="0">
      <root>
        <mxCell id="Z2psPhNsco0Lnuc9M6R1-0" />
        <mxCell id="Z2psPhNsco0Lnuc9M6R1-1" value="Diagram" parent="Z2psPhNsco0Lnuc9M6R1-0" />
        <mxCell id="Z2psPhNsco0Lnuc9M6R1-13" value="Description" style="text;html=1;strokeColor=none;fillColor=#f5f5f5;align=left;verticalAlign=middle;whiteSpace=wrap;rounded=0;fontSize=12;fontFamily=Helvetica;fontColor=#333333;fontStyle=0" vertex="1" parent="Z2psPhNsco0Lnuc9M6R1-1">
          <mxGeometry x="400" y="199" width="320" height="20" as="geometry" />
        </mxCell>
        <mxCell id="Z2psPhNsco0Lnuc9M6R1-14" value="URL" style="text;html=1;strokeColor=none;fillColor=#f5f5f5;align=left;verticalAlign=middle;whiteSpace=wrap;rounded=0;fontSize=12;fontFamily=Helvetica;fontColor=#333333;fontStyle=0" vertex="1" parent="Z2psPhNsco0Lnuc9M6R1-1">
          <mxGeometry x="160" y="200" width="230" height="20" as="geometry" />
        </mxCell>
        <mxCell id="Z2psPhNsco0Lnuc9M6R1-15" value="&lt;font style=&quot;font-size: 10px;&quot;&gt;VERB&lt;/font&gt;" style="text;html=1;strokeColor=none;fillColor=#f5f5f5;align=left;verticalAlign=middle;whiteSpace=wrap;rounded=0;fontSize=10;fontFamily=Helvetica;fontColor=#333333;fontStyle=0" vertex="1" parent="Z2psPhNsco0Lnuc9M6R1-1">
          <mxGeometry x="120" y="200" width="30" height="20" as="geometry" />
        </mxCell>
        <mxCell id="Z2psPhNsco0Lnuc9M6R1-91" value="Context/legend" parent="Z2psPhNsco0Lnuc9M6R1-0" />
        <mxCell id="Z2psPhNsco0Lnuc9M6R1-92" value="Title/Diagram" parent="Z2psPhNsco0Lnuc9M6R1-0" />
        <mxCell id="Z2psPhNsco0Lnuc9M6R1-93" value="&lt;font style=&quot;font-size: 12px ; font-weight: normal&quot;&gt;&lt;i&gt;Diagram: Base System Logical Module -&amp;nbsp;&lt;/i&gt;&lt;i&gt;Interoperability&amp;nbsp;&lt;/i&gt;&lt;i&gt;- APIs - System for Cross Domain Identity Mgmtn (SCIM)&lt;/i&gt;&lt;/font&gt;" style="text;strokeColor=none;fillColor=none;html=1;fontSize=12;fontStyle=1;verticalAlign=middle;align=left;shadow=0;glass=0;comic=0;opacity=30;fontColor=#808080;" vertex="1" parent="Z2psPhNsco0Lnuc9M6R1-92">
          <mxGeometry x="120" y="300" width="560" height="20" as="geometry" />
        </mxCell>
        <mxCell id="Z2psPhNsco0Lnuc9M6R1-94" value="Title/Page" visible="0" parent="Z2psPhNsco0Lnuc9M6R1-0" />
        <mxCell id="Z2psPhNsco0Lnuc9M6R1-95" value="" style="group;fontSize=12;" vertex="1" connectable="0" parent="Z2psPhNsco0Lnuc9M6R1-94">
          <mxGeometry x="120" y="120" width="600" height="45" as="geometry" />
        </mxCell>
        <mxCell id="Z2psPhNsco0Lnuc9M6R1-96" value="&lt;font style=&quot;font-size: 12px&quot;&gt;Base Logical Module - Interoperability - APIs - System for Cross Domain Identity Mgmt (SCIM)&lt;/font&gt;" style="text;strokeColor=none;fillColor=none;html=1;fontSize=12;fontStyle=1;verticalAlign=middle;align=left;shadow=0;glass=0;comic=0;opacity=30;fontColor=#808080;" vertex="1" parent="Z2psPhNsco0Lnuc9M6R1-95">
          <mxGeometry y="20" width="600" height="20" as="geometry" />
        </mxCell>
        <mxCell id="Z2psPhNsco0Lnuc9M6R1-97" value="" style="line;strokeWidth=2;html=1;shadow=0;glass=0;comic=0;fillColor=none;fontSize=10;fontColor=#CCCCCC;labelBackgroundColor=none;strokeColor=#CCCCCC;" vertex="1" parent="Z2psPhNsco0Lnuc9M6R1-95">
          <mxGeometry y="35" width="600" height="10" as="geometry" />
        </mxCell>
        <mxCell id="Z2psPhNsco0Lnuc9M6R1-98" value="About" parent="Z2psPhNsco0Lnuc9M6R1-0" />
      </root>
    </mxGraphModel>
  </diagram>
  <diagram id="lnYpBydLJxO-HS_8y6Ep" name="Integration/Media Logical Module/Metadata Protocols">
    <mxGraphModel dx="1130" dy="406" grid="1" gridSize="10" guides="1" tooltips="1" connect="1" arrows="1" fold="1" page="1" pageScale="1" pageWidth="827" pageHeight="1169" math="0" shadow="0">
      <root>
        <mxCell id="kS9iZLB6ewBfaY3MiKra-0" />
        <mxCell id="kS9iZLB6ewBfaY3MiKra-1" parent="kS9iZLB6ewBfaY3MiKra-0" />
        <mxCell id="kS9iZLB6ewBfaY3MiKra-2" value="&lt;font style=&quot;font-size: 12px&quot;&gt;Diagram: Media Logical Module -&amp;nbsp;Integration - Constraints - Protocols&lt;/font&gt;" style="text;strokeColor=none;fillColor=none;html=1;fontSize=12;fontStyle=2;verticalAlign=middle;align=left;shadow=0;glass=0;comic=0;opacity=30;fontColor=#808080;" parent="kS9iZLB6ewBfaY3MiKra-1" vertex="1">
          <mxGeometry x="120" y="340" width="520" height="20" as="geometry" />
        </mxCell>
        <mxCell id="kS9iZLB6ewBfaY3MiKra-3" value="Module Specific Protocols - Required" style="rounded=1;whiteSpace=wrap;html=1;shadow=0;glass=0;comic=0;strokeColor=#B3B3B3;fillColor=none;fontSize=10;align=left;fontColor=#333333;recursiveResize=0;container=1;collapsible=0;verticalAlign=top;spacing=2;spacingTop=-5;dashed=1;absoluteArcSize=1;" parent="kS9iZLB6ewBfaY3MiKra-1" vertex="1">
          <mxGeometry x="120" y="240" width="240" height="70" as="geometry" />
        </mxCell>
        <UserObject label="&lt;div style=&quot;text-align: left&quot;&gt;&lt;span style=&quot;white-space: nowrap&quot;&gt;&lt;font color=&quot;#000000&quot;&gt;Dublin Core&lt;/font&gt;&lt;/span&gt;&lt;/div&gt;" link="https://dublincore.org/" id="kS9iZLB6ewBfaY3MiKra-4">
          <mxCell style="html=1;outlineConnect=0;whiteSpace=wrap;fillColor=none;strokeColor=#009999;shape=mxgraph.archimate3.application;appType=constraint;archiType=rounded;fontSize=10;fontColor=#4D4D4D;" parent="kS9iZLB6ewBfaY3MiKra-3" vertex="1">
            <mxGeometry x="10" y="20" width="60" height="40" as="geometry" />
          </mxCell>
        </UserObject>
        <mxCell id="kS9iZLB6ewBfaY3MiKra-5" style="edgeStyle=orthogonalEdgeStyle;rounded=0;orthogonalLoop=1;jettySize=auto;html=1;fontSize=11;" parent="kS9iZLB6ewBfaY3MiKra-3" source="kS9iZLB6ewBfaY3MiKra-6" target="kS9iZLB6ewBfaY3MiKra-4" edge="1">
          <mxGeometry relative="1" as="geometry" />
        </mxCell>
        <UserObject label="&lt;div style=&quot;text-align: left&quot;&gt;&lt;span style=&quot;white-space: nowrap&quot;&gt;&lt;font color=&quot;#000000&quot;&gt;Dublin Core &lt;br&gt;Metadata &lt;br&gt;Initiative&lt;/font&gt;&lt;/span&gt;&lt;/div&gt;" link="https://www.dublincore.org/specifications/dublin-core/dcq-html/2000-08-15/" id="kS9iZLB6ewBfaY3MiKra-6">
          <mxCell style="html=1;outlineConnect=0;whiteSpace=wrap;fillColor=none;strokeColor=#009999;shape=mxgraph.archimate3.application;appType=constraint;archiType=rounded;fontSize=10;fontColor=#4D4D4D;" parent="kS9iZLB6ewBfaY3MiKra-3" vertex="1">
            <mxGeometry x="90" y="20" width="60" height="40" as="geometry" />
          </mxCell>
        </UserObject>
        <UserObject label="&lt;div style=&quot;text-align: left&quot;&gt;&lt;span style=&quot;white-space: nowrap&quot;&gt;&lt;font color=&quot;#000000&quot;&gt;Schema.org&lt;/font&gt;&lt;/span&gt;&lt;/div&gt;" link="https://schema.org/docs/schemas.html" id="kS9iZLB6ewBfaY3MiKra-7">
          <mxCell style="html=1;outlineConnect=0;whiteSpace=wrap;fillColor=none;strokeColor=#009999;shape=mxgraph.archimate3.application;appType=constraint;archiType=rounded;fontSize=10;fontColor=#4D4D4D;" parent="kS9iZLB6ewBfaY3MiKra-3" vertex="1">
            <mxGeometry x="160" y="20" width="60" height="40" as="geometry" />
          </mxCell>
        </UserObject>
        <mxCell id="kS9iZLB6ewBfaY3MiKra-8" value="" style="group" parent="kS9iZLB6ewBfaY3MiKra-1" vertex="1" connectable="0">
          <mxGeometry x="120" y="180" width="560" height="50" as="geometry" />
        </mxCell>
        <mxCell id="kS9iZLB6ewBfaY3MiKra-9" value="Information (if any) presented below builds upon &lt;br&gt;what is already within&amp;nbsp; the Description of the &lt;br&gt;Base&amp;nbsp;Logical Module." style="shape=note;size=20;whiteSpace=wrap;html=1;strokeWidth=1;fillColor=none;fontSize=12;align=left;fontStyle=2;strokeColor=#999999;fontColor=#999999;" parent="kS9iZLB6ewBfaY3MiKra-8" vertex="1">
          <mxGeometry width="290" height="50" as="geometry" />
        </mxCell>
        <mxCell id="kS9iZLB6ewBfaY3MiKra-10" value="" style="rounded=0;whiteSpace=wrap;html=1;fontSize=10;align=left;container=1;collapsible=0;fontColor=#B3B3B3;strokeColor=#B3B3B3;" parent="kS9iZLB6ewBfaY3MiKra-1" vertex="1">
          <mxGeometry x="440" y="180" width="240" height="50" as="geometry" />
        </mxCell>
        <mxCell id="kS9iZLB6ewBfaY3MiKra-11" value="" style="whiteSpace=wrap;html=1;aspect=fixed;fillColor=none;strokeColor=#82b366;fontSize=10;align=left;fontStyle=2;strokeWidth=2;" parent="kS9iZLB6ewBfaY3MiKra-10" vertex="1">
          <mxGeometry x="13.294460641399398" y="16.666666666666668" width="8.333333333333334" height="8.333333333333334" as="geometry" />
        </mxCell>
        <mxCell id="kS9iZLB6ewBfaY3MiKra-12" value="" style="whiteSpace=wrap;html=1;aspect=fixed;fillColor=none;strokeColor=#d6b656;fontSize=10;align=left;fontStyle=2;strokeWidth=2;" parent="kS9iZLB6ewBfaY3MiKra-10" vertex="1">
          <mxGeometry x="13.294460641399398" y="28" width="8.333333333333334" height="8.333333333333334" as="geometry" />
        </mxCell>
        <mxCell id="kS9iZLB6ewBfaY3MiKra-13" value="" style="whiteSpace=wrap;html=1;aspect=fixed;fillColor=none;strokeColor=#6c8ebf;fontSize=10;align=left;fontStyle=2;strokeWidth=2;" parent="kS9iZLB6ewBfaY3MiKra-10" vertex="1">
          <mxGeometry x="13.294460641399398" y="39.333333333333336" width="8.333333333333334" height="8.333333333333334" as="geometry" />
        </mxCell>
        <mxCell id="kS9iZLB6ewBfaY3MiKra-14" value="Internal, System (underlying optional Tenants)&amp;nbsp;" style="text;html=1;strokeColor=none;fillColor=none;align=left;verticalAlign=middle;whiteSpace=wrap;rounded=0;fontSize=10;fontStyle=2;fontColor=#B3B3B3;" parent="kS9iZLB6ewBfaY3MiKra-10" vertex="1">
          <mxGeometry x="26.5945189504373" y="16.666666666666668" width="213.40548104956264" height="8.333333333333334" as="geometry" />
        </mxCell>
        <mxCell id="kS9iZLB6ewBfaY3MiKra-15" value="Internal, (optionally) Tenanted" style="text;html=1;strokeColor=none;fillColor=none;align=left;verticalAlign=middle;whiteSpace=wrap;rounded=0;fontSize=10;fontStyle=2;fontColor=#B3B3B3;" parent="kS9iZLB6ewBfaY3MiKra-10" vertex="1">
          <mxGeometry x="26.59" y="30" width="213.41" height="6.33" as="geometry" />
        </mxCell>
        <mxCell id="kS9iZLB6ewBfaY3MiKra-16" value="External, Versioned Contracts/Msgs" style="text;html=1;strokeColor=none;fillColor=none;align=left;verticalAlign=middle;whiteSpace=wrap;rounded=0;fontSize=10;fontStyle=2;fontColor=#B3B3B3;" parent="kS9iZLB6ewBfaY3MiKra-10" vertex="1">
          <mxGeometry x="26.5945189504373" y="39.333333333333336" width="213.40548104956264" height="8.333333333333334" as="geometry" />
        </mxCell>
        <mxCell id="kS9iZLB6ewBfaY3MiKra-17" value="Legend" style="text;html=1;strokeColor=none;fillColor=none;align=center;verticalAlign=middle;whiteSpace=wrap;rounded=0;fontSize=10;fontStyle=5;fontColor=#B3B3B3;" parent="kS9iZLB6ewBfaY3MiKra-10" vertex="1">
          <mxGeometry x="26.588921282798815" width="159.53352769679296" height="16.666666666666668" as="geometry" />
        </mxCell>
      </root>
    </mxGraphModel>
  </diagram>
</mxfile>
